<?xml version="1.0" standalone="no"?>
<!DOCTYPE svg PUBLIC "-//W3C//DTD SVG 20010904//EN"
 "http://www.w3.org/TR/2001/REC-SVG-20010904/DTD/svg10.dtd">
<svg version="1.0" xmlns="http://www.w3.org/2000/svg"
 width="720.000000pt" height="441.000000pt" viewBox="0 0 720.000000 441.000000"
 preserveAspectRatio="xMidYMid meet">

<g transform="translate(0.000000,441.000000) scale(0.100000,-0.100000)"
fill="#981315" stroke="none">
<path d="M3881 3484 c-88 -13 -350 -76 -433 -104 -95 -32 -278 -164 -278 -200
0 -11 -4 -22 -10 -25 -20 -12 -50 -141 -70 -297 -11 -88 -31 -208 -45 -266
-13 -58 -22 -109 -19 -113 4 -8 51 -23 152 -49 69 -18 180 -25 195 -12 11 10
16 2 25 -41 14 -60 30 -187 34 -267 3 -61 -6 -173 -27 -355 -8 -66 -14 -169
-15 -230 0 -60 -1 -132 -2 -160 -1 -27 0 -112 1 -188 2 -110 6 -141 20 -156
12 -15 45 -23 151 -35 74 -9 164 -21 200 -27 152 -23 886 13 940 46 14 9 12
48 -4 80 -8 15 -12 34 -9 41 5 13 -3 57 -38 216 -6 26 -8 56 -5 66 4 10 2 50
-4 88 -6 38 -13 94 -16 124 -2 30 -7 69 -10 85 -12 62 -15 590 -4 650 l11 60
184 0 c219 0 224 2 206 82 -6 26 -15 86 -21 133 -28 221 -78 436 -121 523 -64
128 -145 184 -344 237 -66 17 -155 42 -197 55 -150 47 -303 60 -447 39z m-491
-1034 c0 -5 -2 -10 -4 -10 -3 0 -8 5 -11 10 -3 6 -1 10 4 10 6 0 11 -4 11 -10z"/>
<path d="M5869 3437 c-126 -70 -305 -217 -295 -244 4 -9 -13 -44 -39 -83 -55
-83 -118 -217 -134 -285 -16 -71 -18 -378 -4 -585 7 -96 18 -274 24 -395 5
-121 14 -238 19 -260 11 -48 12 -277 1 -430 -10 -143 -5 -166 39 -181 161 -56
359 -57 650 -3 147 27 167 35 188 73 18 35 19 85 2 386 -6 102 -12 199 -12
215 -1 17 4 96 11 177 7 81 10 151 7 156 -8 13 -9 693 -1 713 16 40 33 202 31
289 -1 80 -6 103 -29 150 -31 64 -87 141 -159 222 -27 31 -58 70 -68 86 -16
26 -60 50 -107 58 -6 1 -62 -26 -124 -59z"/>
<path d="M1522 3464 c-232 -23 -455 -69 -537 -112 -16 -8 -61 -35 -98 -60 -60
-39 -72 -52 -97 -108 -43 -93 -59 -167 -75 -347 -20 -229 -36 -350 -48 -365
-7 -9 -5 -17 9 -28 16 -12 49 -14 186 -12 149 3 169 6 181 22 12 16 14 13 25
-35 28 -133 24 -366 -10 -569 -10 -62 -14 -151 -23 -510 -2 -91 -9 -188 -16
-216 -8 -35 -8 -61 -2 -80 9 -29 11 -29 154 -51 291 -45 326 -47 630 -34 301
13 518 34 550 54 16 9 19 19 15 42 -4 17 -10 62 -15 100 -5 39 -15 97 -21 130
-11 60 -19 136 -40 415 -6 80 -12 163 -15 185 -5 54 -34 216 -41 226 -2 4 3
38 12 74 14 54 15 74 5 104 -9 33 -8 49 10 105 20 66 21 67 49 61 37 -8 203
10 303 32 89 20 85 11 53 128 -8 33 -25 114 -36 180 -29 168 -67 309 -106 386
-36 72 -102 132 -185 167 -92 40 -334 95 -509 117 -131 17 -128 17 -308 -1z
m-475 -976 c-3 -8 -6 -5 -6 6 -1 11 2 17 5 13 3 -3 4 -12 1 -19z"/>
</g>
</svg>
